<mxfile host="app.diagrams.net" modified="2020-10-13T17:13:15.917Z" agent="5.0 (Windows NT 10.0; Win64; x64) AppleWebKit/537.36 (KHTML, like Gecko) Chrome/85.0.4183.121 Safari/537.36 OPR/71.0.3770.205" etag="o_WCg_PzCB0bs2Hkj5vU" version="13.7.9" type="github">
  <diagram id="qFKxyE-M53xmJl7StOp3" name="Page-1">
    <mxGraphModel dx="1381" dy="764" grid="1" gridSize="10" guides="1" tooltips="1" connect="1" arrows="1" fold="1" page="1" pageScale="1" pageWidth="827" pageHeight="1169" math="0" shadow="0">
      <root>
        <mxCell id="0" />
        <mxCell id="1" parent="0" />
        <mxCell id="AVhFk2Lw0QTZrJyyEQa5-1" value="ООО &quot;Новая-Тур-Фирма&quot;" style="rounded=0;whiteSpace=wrap;html=1;" vertex="1" parent="1">
          <mxGeometry x="320" y="40" width="170" height="80" as="geometry" />
        </mxCell>
        <mxCell id="AVhFk2Lw0QTZrJyyEQa5-17" style="edgeStyle=orthogonalEdgeStyle;rounded=0;orthogonalLoop=1;jettySize=auto;html=1;exitX=0.75;exitY=1;exitDx=0;exitDy=0;entryX=0.5;entryY=0;entryDx=0;entryDy=0;" edge="1" parent="1" source="AVhFk2Lw0QTZrJyyEQa5-2" target="AVhFk2Lw0QTZrJyyEQa5-14">
          <mxGeometry relative="1" as="geometry" />
        </mxCell>
        <mxCell id="AVhFk2Lw0QTZrJyyEQa5-2" value="Отдел продаж" style="rounded=0;whiteSpace=wrap;html=1;" vertex="1" parent="1">
          <mxGeometry x="320" y="140" width="170" height="80" as="geometry" />
        </mxCell>
        <mxCell id="AVhFk2Lw0QTZrJyyEQa5-25" style="edgeStyle=orthogonalEdgeStyle;rounded=0;orthogonalLoop=1;jettySize=auto;html=1;entryX=0;entryY=1;entryDx=0;entryDy=-15;entryPerimeter=0;" edge="1" parent="1" source="AVhFk2Lw0QTZrJyyEQa5-3" target="AVhFk2Lw0QTZrJyyEQa5-21">
          <mxGeometry relative="1" as="geometry" />
        </mxCell>
        <mxCell id="AVhFk2Lw0QTZrJyyEQa5-27" style="edgeStyle=orthogonalEdgeStyle;rounded=0;orthogonalLoop=1;jettySize=auto;html=1;entryX=0;entryY=0.25;entryDx=0;entryDy=0;" edge="1" parent="1" source="AVhFk2Lw0QTZrJyyEQa5-3" target="AVhFk2Lw0QTZrJyyEQa5-26">
          <mxGeometry relative="1" as="geometry" />
        </mxCell>
        <mxCell id="AVhFk2Lw0QTZrJyyEQa5-3" value="Клиенты" style="rounded=0;whiteSpace=wrap;html=1;" vertex="1" parent="1">
          <mxGeometry x="140" y="500" width="170" height="80" as="geometry" />
        </mxCell>
        <mxCell id="AVhFk2Lw0QTZrJyyEQa5-4" value="" style="endArrow=classic;html=1;exitX=0.5;exitY=1;exitDx=0;exitDy=0;" edge="1" parent="1" source="AVhFk2Lw0QTZrJyyEQa5-1" target="AVhFk2Lw0QTZrJyyEQa5-2">
          <mxGeometry width="50" height="50" relative="1" as="geometry">
            <mxPoint x="243" y="130" as="sourcePoint" />
            <mxPoint x="290" y="130" as="targetPoint" />
          </mxGeometry>
        </mxCell>
        <mxCell id="AVhFk2Lw0QTZrJyyEQa5-16" style="edgeStyle=orthogonalEdgeStyle;rounded=0;orthogonalLoop=1;jettySize=auto;html=1;entryX=0.076;entryY=1.038;entryDx=0;entryDy=0;entryPerimeter=0;" edge="1" parent="1" source="AVhFk2Lw0QTZrJyyEQa5-21" target="AVhFk2Lw0QTZrJyyEQa5-2">
          <mxGeometry relative="1" as="geometry">
            <mxPoint x="110" y="400" as="sourcePoint" />
          </mxGeometry>
        </mxCell>
        <mxCell id="AVhFk2Lw0QTZrJyyEQa5-19" style="edgeStyle=orthogonalEdgeStyle;rounded=0;orthogonalLoop=1;jettySize=auto;html=1;entryX=0.5;entryY=0;entryDx=0;entryDy=0;" edge="1" parent="1" source="AVhFk2Lw0QTZrJyyEQa5-14" target="AVhFk2Lw0QTZrJyyEQa5-18">
          <mxGeometry relative="1" as="geometry" />
        </mxCell>
        <mxCell id="AVhFk2Lw0QTZrJyyEQa5-14" value="Определение места отдыха" style="shape=parallelogram;perimeter=parallelogramPerimeter;whiteSpace=wrap;html=1;fixedSize=1;" vertex="1" parent="1">
          <mxGeometry x="360" y="250" width="190" height="60" as="geometry" />
        </mxCell>
        <mxCell id="AVhFk2Lw0QTZrJyyEQa5-24" style="edgeStyle=orthogonalEdgeStyle;rounded=0;orthogonalLoop=1;jettySize=auto;html=1;entryX=1;entryY=0.4;entryDx=0;entryDy=0;entryPerimeter=0;" edge="1" parent="1" source="AVhFk2Lw0QTZrJyyEQa5-18" target="AVhFk2Lw0QTZrJyyEQa5-3">
          <mxGeometry relative="1" as="geometry" />
        </mxCell>
        <mxCell id="AVhFk2Lw0QTZrJyyEQa5-18" value="Предоставление вариантов на основе предпочтений" style="rounded=1;whiteSpace=wrap;html=1;" vertex="1" parent="1">
          <mxGeometry x="395" y="330" width="120" height="60" as="geometry" />
        </mxCell>
        <mxCell id="AVhFk2Lw0QTZrJyyEQa5-21" value="Данные о клиенте" style="shape=cylinder3;whiteSpace=wrap;html=1;boundedLbl=1;backgroundOutline=1;size=15;" vertex="1" parent="1">
          <mxGeometry x="190" y="320" width="90" height="80" as="geometry" />
        </mxCell>
        <mxCell id="AVhFk2Lw0QTZrJyyEQa5-28" style="edgeStyle=orthogonalEdgeStyle;rounded=0;orthogonalLoop=1;jettySize=auto;html=1;exitX=1;exitY=0.25;exitDx=0;exitDy=0;" edge="1" parent="1" source="AVhFk2Lw0QTZrJyyEQa5-26">
          <mxGeometry relative="1" as="geometry">
            <mxPoint x="610" y="180" as="targetPoint" />
          </mxGeometry>
        </mxCell>
        <mxCell id="AVhFk2Lw0QTZrJyyEQa5-26" value="Регистрация факта продажи с учетом скидок" style="rounded=1;whiteSpace=wrap;html=1;" vertex="1" parent="1">
          <mxGeometry x="414" y="520" width="120" height="60" as="geometry" />
        </mxCell>
        <mxCell id="AVhFk2Lw0QTZrJyyEQa5-29" value="" style="endArrow=classic;html=1;entryX=1;entryY=0.5;entryDx=0;entryDy=0;" edge="1" parent="1" target="AVhFk2Lw0QTZrJyyEQa5-2">
          <mxGeometry width="50" height="50" relative="1" as="geometry">
            <mxPoint x="610" y="180" as="sourcePoint" />
            <mxPoint x="440" y="320" as="targetPoint" />
          </mxGeometry>
        </mxCell>
      </root>
    </mxGraphModel>
  </diagram>
</mxfile>
